<svg version="1.1" id="Layer_1" xmlns="http://www.w3.org/2000/svg" xmlns:xlink="http://www.w3.org/1999/xlink" x="0px" y="0px"
	 width="100%" viewBox="0 0 500 500" enable-background="new 0 0 500 500" xml:space="preserve">
<path fill="#FFFFFF" opacity="1.000000" stroke="none" 
	d="
M321.000000,501.000000 
	C214.000031,501.000000 107.500053,501.000000 1.000057,501.000000 
	C1.000038,334.333405 1.000038,167.666794 1.000019,1.000147 
	C167.666565,1.000098 334.333130,1.000098 500.999756,1.000049 
	C500.999847,167.666519 500.999847,334.333038 500.999939,500.999786 
	C441.166656,501.000000 381.333344,501.000000 321.000000,501.000000 
M435.832123,373.496155 
	C435.811401,323.676575 436.059326,273.854462 435.597046,224.038971 
	C435.467957,210.129196 433.935364,196.132797 431.828430,182.362503 
	C427.869324,156.487183 412.319580,139.961578 387.353912,134.483521 
	C375.280884,131.834442 362.951508,131.295990 350.625153,133.082016 
	C335.541351,135.267624 321.550018,140.104202 309.689178,150.063797 
	C307.877563,151.584976 306.676025,152.850403 307.467438,155.894608 
	C310.634338,168.076172 313.423065,180.363953 316.016602,192.682999 
	C317.123444,197.940262 317.407349,203.370758 318.100220,209.007294 
	C322.144409,209.007294 325.468994,208.879181 328.780579,209.032303 
	C337.307892,209.426575 340.616425,211.895172 342.172058,220.233521 
	C343.262604,226.078888 343.753387,232.116104 343.768463,238.069504 
	C343.890778,286.389313 343.837433,334.709534 343.837555,383.029633 
	C343.837555,384.944366 343.837524,386.859100 343.837524,388.751190 
	C374.902771,388.751190 405.130310,388.751190 435.831848,388.751190 
	C435.831848,383.758789 435.831848,379.126526 435.832123,373.496155 
M203.751923,220.106445 
	C204.166595,227.242294 204.924179,234.377350 204.940430,241.514099 
	C205.047836,288.674622 204.995941,335.835541 204.995956,382.996307 
	C204.995956,384.923889 204.995956,386.851440 204.995956,388.808228 
	C235.996353,388.808228 266.243805,388.808228 296.771667,388.808228 
	C296.857544,387.386444 296.990784,386.256287 296.984772,385.126831 
	C296.668335,325.651886 296.497070,266.175415 295.899658,206.703278 
	C295.755554,192.356049 292.927490,178.236526 287.772339,164.769775 
	C281.125916,147.407410 269.039642,136.002167 250.117340,133.950821 
	C239.284988,132.776505 228.237823,132.727280 217.339035,133.249634 
	C205.070801,133.837616 193.545166,137.730667 182.910339,144.075867 
	C180.272568,145.649673 178.913971,147.328140 178.954147,150.725723 
	C179.164871,168.554352 179.045029,186.386795 179.067245,204.217880 
	C179.069046,205.651764 179.276489,207.085388 179.426620,209.009109 
	C183.275482,209.009109 186.753174,208.886047 190.219315,209.033905 
	C198.274399,209.377457 201.038681,211.581284 203.751923,220.106445 
M66.125748,194.500000 
	C66.125748,259.224854 66.125748,323.949677 66.125748,388.834106 
	C97.066521,388.834106 127.296837,388.834106 157.681061,388.834106 
	C157.681061,304.418884 157.681061,220.291412 157.681061,136.259277 
	C127.014076,136.259277 96.791557,136.259277 66.125946,136.259277 
	C66.125946,155.590851 66.125946,174.545425 66.125748,194.500000 
z"/>
<path fill="#FFBD5A" opacity="1.000000" stroke="none" 
	d="
M435.831970,373.995209 
	C435.831848,379.126526 435.831848,383.758789 435.831848,388.751190 
	C405.130310,388.751190 374.902771,388.751190 343.837524,388.751190 
	C343.837524,386.859100 343.837555,384.944366 343.837555,383.029633 
	C343.837433,334.709534 343.890778,286.389313 343.768463,238.069504 
	C343.753387,232.116104 343.262604,226.078888 342.172058,220.233521 
	C340.616425,211.895172 337.307892,209.426575 328.780579,209.032303 
	C325.468994,208.879181 322.144409,209.007294 318.100220,209.007294 
	C317.407349,203.370758 317.123444,197.940262 316.016602,192.682999 
	C313.423065,180.363953 310.634338,168.076172 307.467438,155.894608 
	C306.676025,152.850403 307.877563,151.584976 309.689178,150.063797 
	C321.550018,140.104202 335.541351,135.267624 350.625153,133.082016 
	C362.951508,131.295990 375.280884,131.834442 387.353912,134.483521 
	C412.319580,139.961578 427.869324,156.487183 431.828430,182.362503 
	C433.935364,196.132797 435.467957,210.129196 435.597046,224.038971 
	C436.059326,273.854462 435.811401,323.676575 435.831970,373.995209 
z"/>
<path fill="#FFBD59" opacity="1.000000" stroke="none" 
	d="
M203.620087,219.715393 
	C201.038681,211.581284 198.274399,209.377457 190.219315,209.033905 
	C186.753174,208.886047 183.275482,209.009109 179.426620,209.009109 
	C179.276489,207.085388 179.069046,205.651764 179.067245,204.217880 
	C179.045029,186.386795 179.164871,168.554352 178.954147,150.725723 
	C178.913971,147.328140 180.272568,145.649673 182.910339,144.075867 
	C193.545166,137.730667 205.070801,133.837616 217.339035,133.249634 
	C228.237823,132.727280 239.284988,132.776505 250.117340,133.950821 
	C269.039642,136.002167 281.125916,147.407410 287.772339,164.769775 
	C292.927490,178.236526 295.755554,192.356049 295.899658,206.703278 
	C296.497070,266.175415 296.668335,325.651886 296.984772,385.126831 
	C296.990784,386.256287 296.857544,387.386444 296.771667,388.808228 
	C266.243805,388.808228 235.996353,388.808228 204.995956,388.808228 
	C204.995956,386.851440 204.995956,384.923889 204.995956,382.996307 
	C204.995941,335.835541 205.047836,288.674622 204.940430,241.514099 
	C204.924179,234.377350 204.166595,227.242294 203.620087,219.715393 
z"/>
<path fill="#FFBD59" opacity="1.000000" stroke="none" 
	d="
M66.125847,194.000000 
	C66.125946,174.545425 66.125946,155.590851 66.125946,136.259277 
	C96.791557,136.259277 127.014076,136.259277 157.681061,136.259277 
	C157.681061,220.291412 157.681061,304.418884 157.681061,388.834106 
	C127.296837,388.834106 97.066521,388.834106 66.125748,388.834106 
	C66.125748,323.949677 66.125748,259.224854 66.125847,194.000000 
z"/>
</svg>