<svg version="1.1" id="Layer_1" xmlns="http://www.w3.org/2000/svg" xmlns:xlink="http://www.w3.org/1999/xlink" x="0px" y="0px"
	 width="100%" viewBox="0 0 500 500" enable-background="new 0 0 500 500" xml:space="preserve">
<path fill="#FFFFFF" opacity="1.000000" stroke="none" 
	d="
M240.000000,501.000000 
	C160.000015,501.000000 80.500038,501.000000 1.000043,501.000000 
	C1.000028,334.333405 1.000028,167.666779 1.000014,1.000132 
	C167.666565,1.000088 334.333130,1.000088 500.999756,1.000044 
	C500.999847,167.666519 500.999847,334.333038 500.999939,500.999786 
	C414.166656,501.000000 327.333344,501.000000 240.000000,501.000000 
M347.500000,326.886200 
	C357.918732,326.886200 368.337494,326.886200 379.063171,326.886200 
	C379.063171,324.772186 379.063721,323.454559 379.063110,322.136932 
	C379.046417,284.836365 379.158264,247.534973 378.916321,210.235886 
	C378.860474,201.624146 378.036163,192.955826 376.794006,184.425873 
	C374.003754,165.264755 362.524597,153.543243 343.443390,149.671631 
	C334.019012,147.759399 324.621857,148.457260 315.207520,149.974533 
	C306.774994,151.333572 299.278229,154.758438 292.763885,160.120651 
	C291.403931,161.240067 290.446655,164.037857 290.759491,165.804398 
	C292.579010,176.078461 295.186981,186.221466 296.761414,196.525986 
	C297.368286,200.497925 298.352020,201.883514 302.393860,201.909592 
	C311.836060,201.970551 314.391205,204.593201 314.994171,214.005554 
	C315.174896,216.826874 315.138275,219.664459 315.139038,222.494614 
	C315.147888,255.299164 315.144806,288.103729 315.144928,320.908264 
	C315.144958,322.811096 315.144958,324.713928 315.144958,326.886017 
	C326.203186,326.886017 336.351593,326.886017 347.500000,326.886200 
M282.932495,214.524704 
	C282.665344,200.188324 281.772736,185.928894 276.914673,172.259644 
	C272.447052,159.688995 264.376495,150.971573 250.456863,149.749435 
	C242.399918,149.042038 234.097687,148.405075 226.182693,149.588348 
	C218.631012,150.717316 211.398972,154.141586 204.125381,156.825058 
	C202.854416,157.293976 201.214508,159.076035 201.196304,160.273666 
	C200.989471,173.883606 201.065002,187.497818 201.065002,201.321289 
	C202.664291,201.514175 203.800598,201.827988 204.912674,201.757828 
	C215.267868,201.104538 218.180832,203.978622 218.977570,216.222595 
	C219.096329,218.047440 219.014252,219.885773 219.014343,221.717865 
	C219.016037,254.695862 219.016052,287.673859 219.016434,320.651855 
	C219.016449,322.583252 219.016434,324.514618 219.016434,326.589233 
	C240.608566,326.589233 261.505524,326.589233 282.940735,326.589233 
	C282.940735,289.369415 282.940735,252.443253 282.932495,214.524704 
M122.912529,258.500000 
	C122.912529,281.103485 122.912529,303.706940 122.912529,326.439880 
	C144.504013,326.439880 165.511475,326.439880 186.442749,326.439880 
	C186.442749,267.777527 186.442749,209.562805 186.442749,151.329361 
	C165.155579,151.329361 144.250977,151.329361 122.912415,151.329361 
	C122.912415,186.939682 122.912415,222.219849 122.912529,258.500000 
z"/>
<path fill="#FFBD5A" opacity="1.000000" stroke="none" 
	d="
M347.000000,326.886108 
	C336.351593,326.886017 326.203186,326.886017 315.144958,326.886017 
	C315.144958,324.713928 315.144958,322.811096 315.144928,320.908264 
	C315.144806,288.103729 315.147888,255.299164 315.139038,222.494614 
	C315.138275,219.664459 315.174896,216.826874 314.994171,214.005554 
	C314.391205,204.593201 311.836060,201.970551 302.393860,201.909592 
	C298.352020,201.883514 297.368286,200.497925 296.761414,196.525986 
	C295.186981,186.221466 292.579010,176.078461 290.759491,165.804398 
	C290.446655,164.037857 291.403931,161.240067 292.763885,160.120651 
	C299.278229,154.758438 306.774994,151.333572 315.207520,149.974533 
	C324.621857,148.457260 334.019012,147.759399 343.443390,149.671631 
	C362.524597,153.543243 374.003754,165.264755 376.794006,184.425873 
	C378.036163,192.955826 378.860474,201.624146 378.916321,210.235886 
	C379.158264,247.534973 379.046417,284.836365 379.063110,322.136932 
	C379.063721,323.454559 379.063171,324.772186 379.063171,326.886200 
	C368.337494,326.886200 357.918732,326.886200 347.000000,326.886108 
z"/>
<path fill="#FFBD5A" opacity="1.000000" stroke="none" 
	d="
M282.936615,215.020905 
	C282.940735,252.443253 282.940735,289.369415 282.940735,326.589233 
	C261.505524,326.589233 240.608566,326.589233 219.016434,326.589233 
	C219.016434,324.514618 219.016449,322.583252 219.016434,320.651855 
	C219.016052,287.673859 219.016037,254.695862 219.014343,221.717865 
	C219.014252,219.885773 219.096329,218.047440 218.977570,216.222595 
	C218.180832,203.978622 215.267868,201.104538 204.912674,201.757828 
	C203.800598,201.827988 202.664291,201.514175 201.065002,201.321289 
	C201.065002,187.497818 200.989471,173.883606 201.196304,160.273666 
	C201.214508,159.076035 202.854416,157.293976 204.125381,156.825058 
	C211.398972,154.141586 218.631012,150.717316 226.182693,149.588348 
	C234.097687,148.405075 242.399918,149.042038 250.456863,149.749435 
	C264.376495,150.971573 272.447052,159.688995 276.914673,172.259644 
	C281.772736,185.928894 282.665344,200.188324 282.936615,215.020905 
z"/>
<path fill="#FFBD5A" opacity="1.000000" stroke="none" 
	d="
M122.912476,258.000000 
	C122.912415,222.219849 122.912415,186.939682 122.912415,151.329361 
	C144.250977,151.329361 165.155579,151.329361 186.442749,151.329361 
	C186.442749,209.562805 186.442749,267.777527 186.442749,326.439880 
	C165.511475,326.439880 144.504013,326.439880 122.912529,326.439880 
	C122.912529,303.706940 122.912529,281.103485 122.912476,258.000000 
z"/>
</svg>